<?xml version="1.0" encoding="UTF-8" standalone="no"?>
<!-- Created with Inkscape (http://www.inkscape.org/) -->

<svg
   xmlns:dc="http://purl.org/dc/elements/1.1/"
   xmlns:cc="http://creativecommons.org/ns#"
   xmlns:rdf="http://www.w3.org/1999/02/22-rdf-syntax-ns#"
   xmlns:svg="http://www.w3.org/2000/svg"
   xmlns="http://www.w3.org/2000/svg"
   xmlns:sodipodi="http://sodipodi.sourceforge.net/DTD/sodipodi-0.dtd"
   xmlns:inkscape="http://www.inkscape.org/namespaces/inkscape"
   version="1.1"
   id="svg97"
   width="977"
   height="183"
   viewBox="0 0 977 183"
   sodipodi:docname="b01lers-with-text.svg"
   inkscape:version="0.92.4 (5da689c313, 2019-01-14)">
  <metadata
     id="metadata103">
    <rdf:RDF>
      <cc:Work
         rdf:about="">
        <dc:format>image/svg+xml</dc:format>
        <dc:type
           rdf:resource="http://purl.org/dc/dcmitype/StillImage" />
        <dc:title></dc:title>
      </cc:Work>
    </rdf:RDF>
  </metadata>
  <defs
     id="defs101" />
  <sodipodi:namedview
     pagecolor="#ffffff"
     bordercolor="#666666"
     borderopacity="1"
     objecttolerance="10"
     gridtolerance="10"
     guidetolerance="10"
     inkscape:pageopacity="0"
     inkscape:pageshadow="2"
     inkscape:window-width="1680"
     inkscape:window-height="1361"
     id="namedview99"
     showgrid="false"
     inkscape:zoom="1.1015522"
     inkscape:cx="469.17457"
     inkscape:cy="250.79938"
     inkscape:window-x="1730"
     inkscape:window-y="49"
     inkscape:window-maximized="0"
     inkscape:current-layer="svg97" />
  <path
     style="fill:#c22026;fill-opacity:1;stroke-width:0.28513488"
     d="M 120.04641,175.06658 C 108.363,173.20388 98.322683,171.54 97.734605,171.36906 l -1.069261,-0.31081 V 129.83206 88.605892 l 0.810134,0.162101 c 1.253912,0.250859 63.880672,44.570737 64.059372,45.333817 0.0963,0.41029 -2.92035,8.11162 -8.78838,22.43753 l -8.9347,21.81282 -1.26142,0.0505 c -0.69377,0.0278 -10.82053,-1.47344 -22.50394,-3.33611 z"
     id="path94"
     inkscape:connector-curvature="0" />
  <a
     id="a132"
     transform="matrix(0.47433296,0,0,0.47433296,42.667068,2.0705274)">
    <path
       inkscape:connector-curvature="0"
       id="path96"
       d="m 115.04272,165.11742 c 0,-0.35044 1.38802,-3.30149 3.08449,-6.55789 2.2911,-4.3978 2.97825,-6.28265 2.67145,-7.32779 -0.22717,-0.77388 -7.31844,-7.73288 -15.75838,-15.46445 L 89.694925,121.7099 73.364389,126.82289 c -8.981794,2.81215 -16.42634,4.86057 -16.543435,4.55206 -0.117094,-0.30852 -0.117094,-0.63937 0,-0.73525 8.703505,-7.1258 31.436745,-24.3968 32.112696,-24.3968 0.520673,0 9.199829,4.63481 19.28701,10.29957 15.58099,8.74998 18.46392,10.17442 19.16175,9.46777 0.69491,-0.7037 0.40519,-3.74808 -1.88121,-19.76734 -2.53688,-17.774169 -3.87924,-24.045126 -5.14714,-24.045126 -0.29513,0 -2.14422,0.811523 -4.10909,1.803385 l -3.57248,1.803384 H 87.34078 62.00907 l -10.715278,6.011281 c -5.893403,3.306205 -10.867561,6.011282 -11.053684,6.011282 -1.096796,0 0.461166,-3.373177 7.314805,-15.837448 4.209266,-7.655114 8.605015,-14.921852 9.768332,-16.148291 l 2.115122,-2.229903 15.629331,-2.513309 c 18.143475,-2.917604 15.738168,-1.770841 28.201052,-13.44524 4.6001,-4.309071 10.19053,-9.529748 12.42317,-11.601506 l 4.05937,-3.766833 20.58071,3.3676 20.58073,3.367601 3.11844,-3.207537 c 1.71514,-1.764144 9.83771,-10.187527 18.05016,-18.718626 10.86355,-11.2850656 15.06018,-15.2815443 15.40322,-14.6685698 0.25933,0.4633864 1.05645,7.4633012 1.77137,15.5553668 l 1.29988,14.712845 -8.19167,14.195104 c -4.50542,7.807306 -8.19168,14.720842 -8.19168,15.363412 0,1.976143 4.18568,2.59299 14.59501,2.150879 l 9.14955,-0.388606 5.3059,-3.314047 c 4.45535,-2.782795 5.42728,-3.180324 6.06306,-2.479852 0.61429,0.676772 -0.63154,8.580098 -6.60172,41.880214 -4.0474,22.57531 -7.75309,42.03434 -8.23489,43.24227 l -0.87597,2.19624 -42.31167,10.10713 c -23.27142,5.55892 -43.19082,10.10746 -44.26534,10.10786 -1.07451,4e-4 -1.95366,-0.286 -1.95366,-0.63644 z m 8.38252,-109.371662 c 10.84238,-1.903741 13.73476,-2.613577 14.72764,-3.614401 l 1.23553,-1.245412 -1.28562,-1.025391 c -0.70708,-0.563964 -2.76505,-2.310302 -4.57327,-3.880749 -2.27439,-1.975333 -3.81785,-2.855359 -5.00793,-2.855359 -1.18018,0 -4.78883,2.028898 -11.49371,6.462128 -7.82313,5.172606 -9.77606,6.734312 -9.78663,7.826118 -0.0108,1.114065 0.23463,1.303347 1.33934,1.033022 0.7439,-0.182032 7.42399,-1.397013 14.84465,-2.699956 z"
       style="fill:#c22026;fill-opacity:1;stroke-width:0.6011281" />
  </a>
  <path
     style="fill:#9a1b1f;fill-opacity:1;stroke-width:0.28513488"
     d="m 156.3495,73.816183 c -1.33659,0.01929 -7.10084,1.314912 -27.92639,6.19317 -15.33022,3.591034 -28.11466,6.723147 -28.40901,6.96031 -0.499518,0.402435 1.49439,1.869593 29.92188,22.020347 16.75124,11.87407 30.69644,21.59269 30.98916,21.59603 0.48188,0.006 0.51568,-0.16238 0.35667,-1.77597 -0.0965,-0.98015 -1.08432,-13.65078 -2.19473,-28.15702 -1.49783,-19.567864 -2.11854,-26.47805 -2.405,-26.773883 -0.0413,-0.04276 -0.1417,-0.0657 -0.33258,-0.06313 z M 94.162769,89.21346 c -0.08188,-0.003 -0.172576,0.02919 -0.272375,0.06556 -0.165952,0.06091 -11.639486,7.669161 -25.497235,16.90739 l -25.196168,16.79714 1.571234,1.47303 c 0.864081,0.80999 11.386349,10.5088 23.383128,21.55341 11.996766,11.04463 22.710307,20.9427 23.80837,21.99628 1.098036,1.05355 2.046495,1.92015 2.107605,1.92513 0.06124,0.005 0.281763,-0.21557 0.4901,-0.49009 0.310605,-0.40919 0.380712,-7.58356 0.388185,-39.86435 0.0081,-36.881442 0.0081,-40.331294 -0.782844,-40.363689 z"
     id="path98"
     inkscape:connector-curvature="0" />
  <path
     style="fill:#9a1b1f;fill-opacity:1;stroke-width:0.28513488"
     d="m 149.00082,62.159632 c 0.36018,-2.60008 0.81727,-5.102008 4.42811,-24.236472 4.02262,-21.316775 4.19647,-22.170482 4.55985,-22.395116 0.13591,-0.08404 5.83745,-0.784382 12.66989,-1.5563 6.83245,-0.771958 12.8734,-1.488082 13.42437,-1.591428 0.90351,-0.169554 1.1074,-0.397911 2.0788,-2.328515 l 1.07705,-2.1406143 0.31314,0.8205355 c 0.49865,1.3066838 0.66281,8.0040168 0.20565,8.3835688 -0.30928,0.256658 -16.74311,2.413042 -23.1468,3.037192 -1.28568,0.125456 -1.92099,0.337126 -2.3216,0.773969 -0.35403,0.386053 -2.72732,7.903288 -6.62632,20.988607 -5.7555,19.315727 -7.09885,23.397953 -6.66201,20.244573 z"
     id="path103"
     inkscape:connector-curvature="0" />
  <path
     style="fill:#9a1b1f;fill-opacity:1;stroke-width:0.28513488"
     d="m 164.32223,45.824844 c 0.0774,-0.202065 1.33193,-2.065516 2.78761,-4.14115 1.67407,-2.387021 2.87776,-3.831908 3.27536,-3.931707 0.34573,-0.08687 2.85811,-0.01376 5.58304,0.161542 2.72497,0.175611 7.71314,0.499341 11.08487,0.719469 3.3717,0.219993 7.61176,0.488522 9.4223,0.596428 l 3.2919,0.196278 1.69797,-2.018181 c 1.07067,-1.272568 1.79821,-1.918544 1.96942,-1.748571 0.40563,0.402888 -0.60355,8.278793 -1.12799,8.803252 -0.36605,0.366035 -2.3984,0.345638 -16.60327,-0.166789 l -16.18612,-0.583774 -2.13257,1.240246 c -2.12723,1.237184 -3.33432,1.581257 -3.06252,0.873038 z"
     id="path105"
     inkscape:connector-curvature="0" />
  <path
     style="fill:#9a1b1f;fill-opacity:1;stroke-width:0.28513488"
     d="m 206.2997,68.093614 c -1.09777,-0.146392 -8.82089,-1.081322 -17.16253,-2.077698 l -15.16659,-1.811529 -3.45344,1.14869 c -1.89938,0.631772 -3.5373,1.064797 -3.63979,0.962301 -0.10253,-0.102523 1.61409,-1.986871 3.81469,-4.187434 l 4.00105,-4.001072 15.94586,2.167379 c 8.77025,1.192033 16.67667,2.307201 17.56986,2.478091 l 1.62397,0.310739 2.36162,-2.020932 c 3.08724,-2.641926 3.20823,-2.441898 1.78128,2.944369 l -1.07924,4.073795 -1.44498,0.173682 c -1.74995,0.210348 -2.56075,0.184973 -5.15176,-0.160449 z"
     id="path107-8"
     inkscape:connector-curvature="0" />
  <path
     style="fill:#9a1b1f;fill-opacity:1;stroke-width:0.28513488"
     d="m 199.74161,91.071739 c -5.01837,-1.651744 -11.56222,-3.799358 -14.54188,-4.772442 l -5.41756,-1.76927 -2.56623,0.227162 c -1.41141,0.124876 -2.91907,0.345638 -3.35034,0.490477 -0.66077,0.221921 -0.7841,0.183334 -0.7841,-0.245344 0,-0.644811 7.14747,-6.304948 7.96173,-6.304948 0.32149,0 6.58353,2.117153 13.91565,4.70475 7.33206,2.587585 13.53205,4.704705 13.7777,4.704705 0.24562,0 1.35724,-0.641528 2.47021,-1.425662 1.11297,-0.784135 2.10015,-1.425673 2.19371,-1.425673 0.40181,0 0.0714,1.034075 -1.51718,4.750009 -1.44054,3.369499 -1.78453,3.955561 -2.35232,4.007995 -0.36579,0.03394 -4.77101,-1.290035 -9.78939,-2.941808 z"
     id="path109"
     inkscape:connector-curvature="0" />
  <path
     style="fill:#9a1b1f;fill-opacity:1;stroke-width:0.28513488"
     d="m 188.19364,110.49924 -8.41147,-6.42453 -2.24705,-1.4e-4 -2.24705,-1.1e-4 1.39166,-1.09535 c 0.76539,-0.60244 2.55814,-1.71791 3.9839,-2.47886 l 2.59228,-1.38352 5.81918,4.6783 c 3.2006,2.57304 6.64613,5.35658 7.6568,6.1856 1.01065,0.82905 2.00933,1.50732 2.21926,1.50732 0.21008,0 1.02936,-0.32819 1.82095,-0.7293 0.79157,-0.40111 1.62545,-0.68983 1.85304,-0.64156 0.61824,0.13122 -4.58767,6.62269 -5.39407,6.72626 -0.445,0.0573 -3.05753,-1.7768 -9.03743,-6.34411 z"
     id="path111"
     inkscape:connector-curvature="0" />
  <path
     inkscape:connector-curvature="0"
     id="path107-2"
     style="fill:#9a1b1f;fill-opacity:1;stroke-width:0.69981736"
     d="m 245.76576,35.921802 -0.76816,0.475667 -0.76815,0.474277 v 58.701283 58.702641 l 0.81464,0.50301 0.81326,0.50299 2.16096,0.55221 2.1596,0.55084 4.19891,-0.36087 4.19889,-0.36218 0.69981,-0.68616 0.69983,-0.68616 0.3499,-4.28776 0.34991,-4.28637 4.19891,3.68909 4.1989,3.69044 2.79928,1.49392 2.79926,1.49534 10.49727,0.24452 10.49724,0.2448 3.90777,-1.46387 3.90776,-1.46388 5.53977,-4.59118 5.53976,-4.58981 2.2375,-2.80201 2.23754,-2.80338 0.9117,-2.57237 0.91166,-2.57375 V 111.66885 89.624602 l -1.65662,-3.33371 -1.65523,-3.335063 -4.99305,-4.636293 -4.99166,-4.636283 -3.78474,-2.525899 -3.78478,-2.527275 -12.31105,-0.226886 -12.311,-0.226886 -2.6298,0.781833 -2.63116,0.781833 -4.45723,4.168804 -4.4559,4.168845 h -0.43598 -0.43603 V 57.86904 37.660459 l -1.04561,-0.869315 -1.04701,-0.869329 h -6.23412 z m 311.33129,0.166775 -0.83784,1.567754 -0.83925,1.567766 -0.0248,4.905555 -0.0248,4.905568 0.86521,1.574579 0.86387,1.574593 h 10.47266 10.47265 v 44.088449 44.088469 l -9.9724,0.0108 -9.9724,0.0108 -0.88709,0.56312 -0.88843,0.56313 -0.68616,2.39605 -0.68752,2.39606 0.005,2.45347 0.005,2.45347 0.72852,2.62431 v 0.001 l 0.72988,2.62432 h 29.37593 29.3773 l 0.74082,-1.92451 0.74219,-1.92448 -0.24728,-5.05178 -0.24591,-5.05048 -0.89394,-0.89799 -0.89526,-0.89663 -9.9396,-0.34993 -9.94097,-0.34989 -0.34988,-49.368579 -0.34993,-49.368542 -1.21787,-1.858933 -1.21782,-1.857489 -2.63115,-0.731286 -2.63115,-0.729843 -14.49661,-0.0054 z M 375.70906,36.45217 c 0.094,0.07797 0.15438,0.128154 0.26658,0.218604 0.0476,-0.07109 0.0971,-0.14499 0.1461,-0.218604 z m 296.45877,32.177936 -3.14918,1.659337 -3.14921,1.659322 -3.14917,2.52455 -3.14917,2.525899 -3.74646,3.508625 -3.74651,3.508681 -1.50215,2.804749 -1.50214,2.803364 -0.21998,22.030577 -0.22137,22.0292 0.84881,3.16422 0.84746,3.16282 6.95305,6.83554 6.95169,6.83415 2.21837,1.21375 2.21701,1.21238 12.2468,0.38818 12.2468,0.38819 15.19643,0.13673 15.19642,0.13674 0.84881,-1.57458 0.84878,-1.57462 0.005,-5.37163 0.005,-5.37028 -0.88024,-1.06202 -0.88022,-1.06067 -24.26672,-0.21587 -24.26808,-0.21585 -2.09946,-1.15497 -2.09946,-1.15498 -2.97422,-3.6631 -2.97423,-3.66312 v -3.40478 -3.40476 l 26.41812,-0.002 26.41809,-0.006 2.62432,-0.72854 2.62294,-0.7285 1.19327,-2.24162 1.19323,-2.24297 0.28158,-9.84529 0.28156,-9.843902 -0.74768,-4.811232 -0.74901,-4.809887 -1.63882,-3.190194 -1.63882,-3.190195 -6.26011,-5.15294 -6.26009,-5.152959 -3.84898,-1.837011 -3.849,-1.837025 -14.34626,-0.0081 z m 116.38569,0.252801 -3.60706,1.774148 -3.60714,1.775498 -7.32348,5.960759 -7.32345,5.962128 -0.52213,-0.522133 -0.52217,-0.522133 -0.20234,-6.989961 -0.20235,-6.99136 -6.74803,-0.198206 -6.74945,-0.199597 -1.12353,1.123559 -1.12489,1.124867 0.0108,41.763554 0.0108,41.76349 0.51665,0.8119 0.51664,0.81193 2.09675,0.34989 2.09807,0.34988 4.86866,-0.30479 4.86866,-0.30481 0.54399,-0.857 0.54397,-0.857 0.022,-23.79378 0.022,-23.79379 0.51392,-0.79141 0.51395,-0.79139 11.54693,-9.537754 11.54695,-9.539099 2.94821,-1.126288 2.947,-1.12763 5.31002,0.497548 5.30881,0.497517 1.80832,1.555451 1.80832,1.55545 0.43599,6.74942 0.43599,6.748035 0.90221,0.90213 0.90206,0.90209 5.49605,0.24867 5.4974,0.25003 1.47066,-1.4707 1.46946,-1.47072 -0.0135,-4.373871 -0.0135,-4.373846 -0.98409,-4.640392 -0.98422,-4.640371 -1.73723,-3.40752 -1.73857,-3.407504 -1.99017,-1.86163 -1.99002,-1.861617 -3.14922,-1.637469 -3.14921,-1.637469 -11.08908,-0.224135 z m 79.56317,0.446946 -4.00487,1.968228 -4.00609,1.966878 -2.4932,2.912735 -2.49306,2.912694 -1.10982,3.817582 -1.10994,3.816177 0.34318,4.269966 0.3417,4.27135 1.46931,2.877193 1.46797,2.878534 2.87712,2.46304 2.87726,2.46302 14.11797,6.47467 14.11662,6.47467 8.72863,4.10735 8.72727,4.1087 1.55808,1.46388 1.55822,1.46387 0.42642,1.93953 0.42506,1.93816 -1.06341,2.54778 -1.06475,2.5464 -2.45206,1.02511 -2.45205,1.02376 h -16.29821 -16.29671 l -2.29477,-0.65742 -2.29355,-0.65745 -2.1283,-1.79194 -2.12951,-1.79191 h -2.59693 -2.59843 l -3.12182,1.5746 -3.12035,1.57458 -0.6548,1.90672 -0.65331,1.90538 0.94308,1.76459 0.94456,1.76323 2.9756,3.1068 2.97546,3.10543 2.33199,1.23422 2.33173,1.23562 3.84893,0.88162 3.84907,0.88162 19.24493,-0.17368 19.24493,-0.17478 4.199,-1.63472 4.19886,-1.63335 3.58116,-3.64946 3.58102,-3.64807 1.25888,-3.78612 1.25887,-3.78475 v -4.8987 -4.89874 l -1.17146,-3.52095 -1.17133,-3.52096 -2.14718,-2.60518 -2.14732,-2.60653 -2.92096,-1.99695 -2.92083,-1.9983 -21.59595,-9.85759 -21.59595,-9.856223 -1.32322,-1.197328 -1.32295,-1.197369 v -1.410561 -1.410561 l 1.15905,-1.280712 1.1577,-1.279369 16.86262,0.0081 16.86113,0.0081 3.49914,1.632007 3.49901,1.630601 0.92406,1.116722 0.92257,1.116682 1.93,0.423718 1.92986,0.423719 1.78242,-0.677952 1.78241,-0.677912 1.52665,-2.471263 1.52814,-2.472605 0.39228,-2.419292 0.39364,-2.420636 -3.21478,-3.43621 -3.21477,-3.436236 -3.69043,-2.046145 -3.69177,-2.044769 h -21.69429 z m -172.77015,14.921688 2.75689,0.750387 2.75689,0.751781 4.19892,3.768368 4.1989,3.768317 v 7.264716 7.26471 l -21.74219,0.1858 -21.74354,0.18443 -0.47565,-0.47703 -0.47703,-0.47566 v -6.78767 -6.787678 l 1.36411,-1.733158 1.36546,-1.734512 3.96652,-2.733646 3.96794,-2.735052 9.93139,-0.23791 z m -416.6306,0.124323 h 8.00416 8.00282 l 4.16747,3.206598 4.16747,3.206598 1.06064,1.619694 1.06202,1.619683 -0.20785,18.580693 -0.20925,18.57932 -2.44937,2.53276 -2.44937,2.53276 -3.09313,2.05432 -3.09447,2.05297 h -7.56793 -7.5695 l -4.73333,-3.97883 -4.73333,-3.9802 -3.13691,-2.72546 -3.13823,-2.72549 -1.2315,-1.86708 -1.23151,-1.86846 -0.005,-10.70638 -0.005,-10.70638 1.01282,-1.957308 1.01146,-1.955927 5.46183,-4.915141 5.46049,-4.916483 2.72273,-1.841119 z m 64.8876,20.209976 v 1.01008 c 0.0248,0.21117 0.0494,0.45002 0.0669,0.31984 0.0193,-0.13453 -0.0275,-0.79453 -0.0669,-1.32992 z" />
  <path
     style="fill:#c22026;fill-opacity:1;stroke-width:0.44922575"
     d="m 337.95631,157.16788 c -1.29361,-0.20951 -2.24768,-0.6883 -2.79768,-1.40374 -0.80368,-1.04548 -0.83499,-3.32013 -0.84459,-61.379024 -0.0108,-68.320747 -0.29559,-63.122408 3.47976,-63.639853 1.11449,-0.152733 18.15554,-0.277757 37.86903,-0.277757 h 35.84265 l 1.38037,1.674661 1.38038,1.674634 v 59.935302 59.935327 l -1.60234,1.95549 -1.60239,1.95547 -35.57105,-0.0565 c -19.56409,-0.0309 -36.45448,-0.19931 -37.53414,-0.37426 z m 60.01694,-17.42621 c 0.18993,-0.67946 0.34547,-19.95392 0.34547,-42.83215 0,-45.507137 0.0295,-44.987075 -2.3561,-41.476239 -0.60808,0.894851 -10.51697,20.342738 -22.01969,43.217559 -18.7928,37.37201 -20.82714,41.62465 -20.05661,41.92677 0.47162,0.18499 10.50639,0.35047 22.2995,0.36784 l 21.44194,0.0314 z m -43.6799,-22.91053 c 8.07241,-15.10609 34.36705,-67.967147 34.36705,-69.08929 v -1.242471 l -6.80985,0.294726 c -3.74539,0.162095 -12.4379,0.294741 -19.3167,0.294741 h -12.50687 v 37.024412 c 0,20.363392 0.12262,37.344132 0.27264,37.734932 0.14995,0.39083 0.42123,0.71059 0.60282,0.71059 0.18167,0 1.70748,-2.57742 3.39089,-5.72764 z"
     id="path113-9"
     inkscape:connector-curvature="0" />
  <path
     style="fill:#c22026;fill-opacity:1;stroke-width:0.44922575"
     d="m 447.74733,157.80575 c -1.32053,-0.30785 -1.49258,-1.2604 -1.49967,-8.30322 -0.005,-5.47801 0.0835,-6.18848 0.86526,-6.89583 0.79909,-0.72315 2.03826,-0.77704 14.93677,-0.6496 11.06239,0.1094 14.29633,0.0108 15.14718,-0.45793 l 1.08182,-0.59692 -0.29566,-12.8222 c -0.16265,-7.05219 -0.2957,-28.01904 -0.2957,-46.592985 V 47.716301 l -14.93537,-0.298032 c -18.09832,-0.361151 -16.48563,0.422368 -16.50044,-8.016442 -0.005,-3.134091 0.18719,-6.216906 0.42812,-6.850687 l 0.43811,-1.152279 h 23.70777 23.70779 l -0.12789,14.936737 c -0.0703,8.215215 -0.30098,32.523938 -0.51253,54.019392 l -0.3846,39.08265 1.38679,1.45998 1.38677,1.45998 h 5.46018 c 3.00309,0 6.0968,-0.22191 6.87487,-0.49318 l 1.41473,-0.49319 v -19.47187 -19.47191 l 0.99841,-0.69931 c 1.2405,-0.86888 11.76129,-1.00678 13.58027,-0.17781 l 1.14419,0.52133 v 27.27565 c 0,21.91573 -0.11547,27.37147 -0.58751,27.76324 -0.59944,0.49751 -75.38697,1.16922 -77.41966,0.69536 z"
     id="path115-7"
     inkscape:connector-curvature="0" />
</svg>
