<?xml version="1.0" encoding="UTF-8" standalone="no"?>
<!-- Created with Inkscape (http://www.inkscape.org/) -->

<svg
   xmlns:dc="http://purl.org/dc/elements/1.1/"
   xmlns:cc="http://creativecommons.org/ns#"
   xmlns:rdf="http://www.w3.org/1999/02/22-rdf-syntax-ns#"
   xmlns:svg="http://www.w3.org/2000/svg"
   xmlns="http://www.w3.org/2000/svg"
   xmlns:sodipodi="http://sodipodi.sourceforge.net/DTD/sodipodi-0.dtd"
   xmlns:inkscape="http://www.inkscape.org/namespaces/inkscape"
   version="1.1"
   id="svg64"
   width="364"
   height="373"
   viewBox="0 0 364 373"
   sodipodi:docname="gryffon.svg"
   inkscape:version="0.92.4 (5da689c313, 2019-01-14)">
  <metadata
     id="metadata70">
    <rdf:RDF>
      <cc:Work
         rdf:about="">
        <dc:format>image/svg+xml</dc:format>
        <dc:type
           rdf:resource="http://purl.org/dc/dcmitype/StillImage" />
        <dc:title></dc:title>
      </cc:Work>
    </rdf:RDF>
  </metadata>
  <defs
     id="defs68" />
  <sodipodi:namedview
     pagecolor="#ffffff"
     bordercolor="#666666"
     borderopacity="1"
     objecttolerance="10"
     gridtolerance="10"
     guidetolerance="10"
     inkscape:pageopacity="0"
     inkscape:pageshadow="2"
     inkscape:window-width="1680"
     inkscape:window-height="1361"
     id="namedview66"
     showgrid="false"
     inkscape:zoom="1.6635389"
     inkscape:cx="98.571807"
     inkscape:cy="235.61866"
     inkscape:window-x="30"
     inkscape:window-y="49"
     inkscape:window-maximized="0"
     inkscape:current-layer="svg64" />
  <path
     style="fill:#c22026;fill-opacity:1;stroke-width:0.6011281"
     d="m 163.13297,364.71436 c -24.63123,-3.92697 -45.79845,-7.4348 -47.03828,-7.79518 l -2.25423,-0.65524 v -86.91403 -86.91402 l 1.70794,0.34159 c 2.64354,0.5287 134.67474,93.9651 135.05152,95.57382 0.20259,0.865 -6.15681,17.1011 -18.5279,47.30336 l -18.83638,45.98631 -2.65931,0.10666 c -1.46263,0.0587 -22.81214,-3.10631 -47.44336,-7.03327 z"
     id="path94"
     inkscape:connector-curvature="0" />
  <path
     style="fill:#c22026;fill-opacity:1;stroke-width:0.6011281"
     d="m 115.04272,165.11742 c 0,-0.35044 1.38802,-3.30149 3.08449,-6.55789 2.2911,-4.3978 2.97825,-6.28265 2.67145,-7.32779 -0.22717,-0.77388 -7.31844,-7.73288 -15.75838,-15.46445 L 89.694925,121.7099 73.364389,126.82289 c -8.981794,2.81215 -16.42634,4.86057 -16.543435,4.55206 -0.117094,-0.30852 -0.117094,-0.63937 0,-0.73525 8.703505,-7.1258 31.436745,-24.3968 32.112696,-24.3968 0.520673,0 9.199829,4.63481 19.28701,10.29957 15.58099,8.74998 18.46392,10.17442 19.16175,9.46777 0.69491,-0.7037 0.40519,-3.74808 -1.88121,-19.76734 -2.53688,-17.774169 -3.87924,-24.045126 -5.14714,-24.045126 -0.29513,0 -2.14422,0.811523 -4.10909,1.803385 l -3.57248,1.803384 H 87.34078 62.00907 l -10.715278,6.011281 c -5.893403,3.306205 -10.867561,6.011282 -11.053684,6.011282 -1.096796,0 0.461166,-3.373177 7.314805,-15.837448 4.209266,-7.655114 8.605015,-14.921852 9.768332,-16.148291 l 2.115122,-2.229903 15.629331,-2.513309 c 18.143475,-2.917604 15.738168,-1.770841 28.201052,-13.44524 4.6001,-4.309071 10.19053,-9.529748 12.42317,-11.601506 l 4.05937,-3.766833 20.58071,3.3676 20.58073,3.367601 3.11844,-3.207537 c 1.71514,-1.764144 9.83771,-10.187527 18.05016,-18.718626 10.86355,-11.2850656 15.06018,-15.2815443 15.40322,-14.6685698 0.25933,0.4633864 1.05645,7.4633012 1.77137,15.5553668 l 1.29988,14.712845 -8.19167,14.195104 c -4.50542,7.807306 -8.19168,14.720842 -8.19168,15.363412 0,1.976143 4.18568,2.59299 14.59501,2.150879 l 9.14955,-0.388606 5.3059,-3.314047 c 4.45535,-2.782795 5.42728,-3.180324 6.06306,-2.479852 0.61429,0.676772 -0.63154,8.580098 -6.60172,41.880214 -4.0474,22.57531 -7.75309,42.03434 -8.23489,43.24227 l -0.87597,2.19624 -42.31167,10.10713 c -23.27142,5.55892 -43.19082,10.10746 -44.26534,10.10786 -1.07451,4e-4 -1.95366,-0.286 -1.95366,-0.63644 z m 8.38252,-109.371662 c 10.84238,-1.903741 13.73476,-2.613577 14.72764,-3.614401 l 1.23553,-1.245412 -1.28562,-1.025391 c -0.70708,-0.563964 -2.76505,-2.310302 -4.57327,-3.880749 -2.27439,-1.975333 -3.81785,-2.855359 -5.00793,-2.855359 -1.18018,0 -4.78883,2.028898 -11.49371,6.462128 -7.82313,5.172606 -9.77606,6.734312 -9.78663,7.826118 -0.0108,1.114065 0.23463,1.303347 1.33934,1.033022 0.7439,-0.182032 7.42399,-1.397013 14.84465,-2.699956 z"
     id="path96"
     inkscape:connector-curvature="0" />
  <path
     style="fill:#9a1b1f;fill-opacity:1;stroke-width:0.6011281"
     d="M 239.66797 151.25586 C 236.85016 151.29714 224.69784 154.02805 180.79297 164.3125 C 148.47336 171.88318 121.52094 178.48636 120.90039 178.98633 C 119.8473 179.83479 124.05089 182.92789 183.98242 225.41016 C 219.29779 250.44335 248.69735 270.93245 249.31445 270.93945 C 250.33037 270.95143 250.40168 270.59715 250.06641 267.19531 C 249.86275 265.12894 247.78041 238.41638 245.43945 207.83398 C 242.28165 166.5806 240.97304 152.01233 240.36914 151.38867 C 240.28226 151.29895 240.07051 151.24996 239.66797 151.25586 z M 108.56445 183.7168 C 108.39165 183.70973 108.20067 183.77836 107.99023 183.85547 C 107.64051 183.98362 83.451567 200.02373 54.236328 219.5 L 1.1171875 254.91211 L 4.4296875 258.01758 C 6.2513642 259.72524 28.43468 280.17252 53.726562 303.45703 C 79.018443 326.74155 101.605 347.6089 103.91992 349.83008 C 106.23486 352.05126 108.23442 353.87817 108.36328 353.88867 C 108.49214 353.89918 108.95727 353.43406 109.39648 352.85547 C 110.05133 351.99282 110.19914 336.86765 110.21484 268.8125 C 110.23275 191.05818 110.23491 183.78513 108.56445 183.7168 z "
     id="path98" />
  <path
     style="fill:#9a1b1f;fill-opacity:1;stroke-width:0.6011281"
     d="m 224.17532,126.68126 c 0.75935,-5.48154 1.72304,-10.75611 9.33546,-51.095895 8.48061,-44.940489 8.84709,-46.740395 9.61319,-47.213875 0.28671,-0.177196 12.30664,-1.653683 26.71096,-3.281082 14.40432,-1.627399 27.14004,-3.137198 28.3016,-3.355107 1.90477,-0.357338 2.33464,-0.838847 4.38258,-4.909029 l 2.27067,-4.512829 0.66012,1.729837 c 1.05126,2.754789 1.39738,16.874303 0.43327,17.674445 -0.65203,0.541133 -35.2982,5.087219 -48.79859,6.403089 -2.71048,0.264188 -4.04992,0.710723 -4.89453,1.631705 -0.74635,0.813841 -5.74973,16.661887 -13.96972,44.24864 -12.13384,40.721871 -14.96597,49.328181 -14.04501,42.680101 z"
     id="path103"
     inkscape:connector-curvature="0" />
  <path
     style="fill:#9a1b1f;fill-opacity:1;stroke-width:0.6011281"
     d="m 256.47629,92.243874 c 0.1634,-0.425813 2.80803,-4.354531 5.87695,-8.730486 3.52929,-5.032385 6.0669,-8.078518 6.90515,-8.288905 0.72891,-0.182945 6.02557,-0.02977 11.77036,0.34039 5.74479,0.37016 16.26099,1.052704 23.36933,1.516765 7.10834,0.464062 16.04729,1.029897 19.86433,1.257413 l 6.94007,0.413665 3.57967,-4.254785 c 2.25722,-2.68293 3.7911,-4.044796 4.15199,-3.686375 0.85516,0.849315 -1.27242,17.453533 -2.37808,18.559191 -0.77171,0.771709 -5.05631,0.728695 -35.00336,-0.351408 l -34.124,-1.230753 -4.4959,2.614747 c -4.48466,2.608217 -7.02947,3.333661 -6.45651,1.840541 z"
     id="path105"
     inkscape:connector-curvature="0" />
  <path
     style="fill:#9a1b1f;fill-opacity:1;stroke-width:0.6011281"
     d="m 344.97422,139.1914 c -2.31434,-0.30856 -18.59645,-2.27964 -36.18247,-4.38019 l -31.97457,-3.81917 -7.2806,2.42169 c -4.00433,1.33193 -7.45741,2.24488 -7.67352,2.02878 -0.2161,-0.21611 3.40289,-4.18872 8.04221,-8.82804 l 8.43512,-8.43512 33.61748,4.56927 c 18.48962,2.51311 35.15814,4.86409 37.04117,5.22441 l 3.42369,0.65512 4.97883,-4.26066 c 6.50857,-5.56974 6.7637,-5.14801 3.75537,6.20741 l -2.27531,8.58853 -3.04636,0.3661 c -3.68925,0.44335 -5.39866,0.39013 -10.86104,-0.33813 z"
     id="path107"
     inkscape:connector-curvature="0" />
  <path
     style="fill:#9a1b1f;fill-opacity:1;stroke-width:0.6011281"
     d="m 331.14828,187.63449 c -10.57986,-3.4823 -24.37575,-8.00994 -30.65754,-10.06143 l -11.42143,-3.72998 -5.41015,0.47883 c -2.97559,0.26336 -6.15405,0.72869 -7.06326,1.03407 -1.39309,0.46791 -1.6531,0.38658 -1.6531,-0.5171 0,-1.35941 15.06846,-13.29219 16.78508,-13.29219 0.67784,0 13.87963,4.46337 29.33731,9.91861 15.45768,5.45524 28.5286,9.91861 29.0465,9.91861 0.5179,0 2.86139,-1.35253 5.20776,-3.00564 2.34636,-1.6531 4.42753,-3.00564 4.62482,-3.00564 0.84711,0 0.15079,2.1801 -3.1985,10.01408 -3.03703,7.10363 -3.76224,8.33926 -4.9593,8.44978 -0.77115,0.0712 -10.05834,-2.7197 -20.63819,-6.202 z"
     id="path109"
     inkscape:connector-curvature="0" />
  <path
     style="fill:#9a1b1f;fill-opacity:1;stroke-width:0.6011281"
     d="m 306.80259,228.59196 -17.73328,-13.54433 -4.73727,-2.7e-4 -4.73727,-2.7e-4 2.93389,-2.30922 c 1.61363,-1.27007 5.39317,-3.62177 8.39897,-5.226 l 5.46508,-2.91678 12.2682,9.86289 c 6.7475,5.42459 14.0115,11.29289 16.1422,13.04066 2.13071,1.74778 4.23614,3.17778 4.67873,3.17778 0.44259,0 2.17011,-0.6919 3.83892,-1.53755 1.66881,-0.84565 3.42681,-1.45429 3.90666,-1.35254 1.30337,0.27639 -9.67179,13.96208 -11.37194,14.18047 -0.93814,0.1205 -6.44594,-3.74589 -19.05289,-13.37484 z"
     id="path111"
     inkscape:connector-curvature="0" />
</svg>
