<svg width="116" height="25" viewBox="0 0 116 25" fill="none" xmlns="http://www.w3.org/2000/svg">
<path d="M16.509 21.7386C17.9619 21.1581 19.2679 20.2817 20.3377 19.1696C22.0596 17.3866 22.968 14.5267 22.968 14.5267C22.9383 14.8305 22.8908 15.1325 22.8256 15.4311C22.7319 15.8798 22.608 16.3221 22.4548 16.7552C22.2907 17.2401 22.0979 17.7155 21.8774 18.179C21.6203 18.7287 21.3163 19.2567 20.9683 19.7576C20.1403 20.8811 19.0887 21.8342 17.8748 22.5612C17.0299 23.031 16.1275 23.3972 15.1887 23.6514C12.3197 24.3924 6.14484 24.2148 2.46433 19.7297C-0.214746 16.4637 -0.0267768 12.7976 0.0226226 12.0969C0.05919 11.5751 0.406265 7.57916 3.84816 4.54337C4.85459 3.65826 6.01093 2.94634 7.2669 2.43861C7.26447 2.1033 7.38569 1.77808 7.60895 1.5211C7.8322 1.26414 8.14293 1.09218 8.48549 1.03598C8.82813 0.979777 9.18022 1.043 9.47898 1.21434C9.77765 1.38569 10.0035 1.65397 10.116 1.97123C10.9653 1.90933 11.6256 1.90561 11.9553 1.93471C12.1503 1.95142 12.3762 1.97866 12.3762 1.97866C12.8064 2.02327 13.231 2.10894 13.6438 2.23432C14.1611 2.37223 14.6547 2.58226 15.1091 2.8577C15.7904 3.28238 15.8725 3.59621 16.8137 4.16326C16.9151 4.22454 16.9991 4.27221 17.053 4.30195L17.4212 4.40716C17.5996 4.45794 17.6945 4.48395 17.776 4.50683C17.9293 4.55018 18.1474 4.61331 18.4214 4.69937C18.3553 4.82687 18.2995 4.93335 18.2585 5.00887C18.1751 5.16486 18.1109 5.28066 18.1109 5.28498C17.8107 5.84641 17.366 6.3239 16.8195 6.67166C16.2729 7.01941 14.424 6.79604 13.6438 6.67166C12.8637 6.54727 10.413 5.89967 8.07655 7.42502C5.26528 9.26046 5.31725 12.5692 5.33523 13.0583C5.35064 13.4904 5.49498 16.1752 7.8321 18.0162C9.55205 19.3707 11.4472 19.4573 12.1215 19.479C12.6309 19.4951 14.6908 19.5112 16.6764 18.179C17.5722 17.583 18.3177 16.8002 18.8577 15.8885C19.3615 15.0149 19.647 14.0399 19.6917 13.041C19.7133 12.3267 19.6047 11.6143 19.3709 10.9362C19.1399 10.3441 18.8323 9.78253 18.4554 9.26479C19.2509 11.6791 18.5196 13.66 18.5196 13.66C18.313 14.219 18.0429 14.9191 17.3847 15.6174C16.5308 16.5224 15.3529 16.9558 14.9122 17.1137C14.5749 17.2317 14.2299 17.3279 13.8793 17.4015C13.6095 17.4546 13.4043 17.477 13.1222 17.5078L13.1095 17.5092C12.8327 17.5417 12.5541 17.5563 12.2755 17.5532C12.2755 17.5532 12.8022 17.4541 13.3071 17.3273C14.3199 17.0644 15.2542 16.5749 16.0342 15.8985C16.4487 15.5339 17.1095 14.9383 17.4899 13.9479C17.7358 13.3077 17.7612 12.7724 17.7843 12.2847L17.7844 12.282C17.8172 11.5077 17.7263 10.7331 17.5149 9.98533C17.3236 9.30469 17.0361 8.65269 16.6604 8.04777L17.0658 8.08864C17.694 8.17174 18.3155 8.29585 18.9263 8.46005C19.5929 8.63956 20.1144 8.78443 20.7226 9.14102C20.9991 9.30318 21.2743 9.46476 21.5567 9.75999C22.0757 10.3042 22.2386 10.9046 22.3264 11.2458C22.6049 12.3248 22.3765 13.2329 22.1981 13.9077C21.9108 14.9941 21.4399 15.7412 21.1076 16.26C20.6268 17.0122 20.0443 17.6992 19.3754 18.3028C17.7337 19.7737 15.9047 20.3704 14.8526 20.6243C13.4283 20.9991 11.9332 21.0488 10.4856 20.7694C9.03799 20.49 7.67774 19.8893 6.51248 19.0147C4.92141 17.9004 4.15028 16.6512 3.80001 15.9722C2.7389 13.9157 2.81333 11.8041 2.85886 10.8056C2.87236 10.5165 2.88778 10.3401 2.88778 10.3172C2.5785 11.3429 2.08713 13.5369 2.88067 16.0607C3.09239 16.7348 3.56135 18.171 4.87654 19.5421C6.37968 21.109 8.10092 21.6636 9.04659 21.9564C10.1327 22.2926 13.164 23.0491 16.509 21.7386Z" fill="url(#paint0_linear_13_105)"/>
<path d="M43.539 17.4729C42.9265 18.6134 42.0817 19.5215 40.9834 20.1551C39.8852 20.8099 38.6602 21.1267 37.2663 21.1267C35.8724 21.1267 34.6263 20.8099 33.5281 20.1551C32.4298 19.5215 31.585 18.6134 30.9937 17.4729C30.3812 16.3324 30.0855 15.0441 30.0855 13.6079C30.0855 12.1718 30.3812 10.8835 30.9937 9.74298C31.585 8.6025 32.4298 7.71546 33.5281 7.06074C34.6263 6.42714 35.8724 6.08922 37.2663 6.08922C38.6602 6.08922 39.8852 6.42714 40.9834 7.06074C42.0817 7.71546 42.9265 8.6025 43.539 9.74298C44.1303 10.8835 44.4471 12.1718 44.4471 13.6079C44.4471 15.0441 44.1303 16.3324 43.539 17.4729ZM33.169 16.3958C33.5492 17.2195 34.0983 17.8531 34.8164 18.3177C35.5345 18.7823 36.337 18.9935 37.2663 18.9935C38.1745 18.9935 38.977 18.7823 39.6951 18.3177C40.4132 17.8531 40.9623 17.2195 41.3636 16.3958C41.7438 15.5721 41.955 14.6428 41.955 13.6079C41.955 12.5942 41.7438 11.6649 41.3636 10.8412C40.9623 10.0175 40.4132 9.38394 39.6951 8.9193C38.977 8.45466 38.1745 8.22234 37.2663 8.22234C36.337 8.22234 35.5345 8.45466 34.8164 8.9193C34.0983 9.38394 33.5492 10.0175 33.169 10.8412C32.7678 11.6649 32.5777 12.5942 32.5777 13.6079C32.5777 14.6428 32.7678 15.5721 33.169 16.3958ZM47.0429 12.1929H45.1632V10.1865H47.0429V7.16634H49.345V10.1865H51.9427V12.1929H49.345V17.8319C49.345 18.2543 49.4295 18.5711 49.5984 18.7401C49.7674 18.9091 50.0419 18.9935 50.4643 18.9935H52.1962V20.9999H49.9997C48.9648 20.9999 48.2045 20.7676 47.7399 20.2819C47.2752 19.8172 47.0429 19.078 47.0429 18.0643V12.1929ZM53.4203 7.16634H55.7013V10.1865H58.3202V12.1929H55.7013V17.8319C55.7013 18.2543 55.7858 18.5711 55.9547 18.7401C56.1237 18.9091 56.3982 18.9935 56.8206 18.9935H58.5525V20.9999H56.356C55.3211 20.9999 54.5819 20.7676 54.1173 20.2819C53.6526 19.8172 53.4203 19.078 53.4203 18.0643V7.16634ZM59.82 12.6998C60.2635 11.855 60.876 11.2214 61.6786 10.7567C62.4811 10.2921 63.3893 10.0598 64.4242 10.0598C65.459 10.0598 66.3672 10.271 67.1698 10.6934C67.9723 11.1158 68.5848 11.7283 69.0494 12.4886C69.5141 13.27 69.7464 14.1782 69.7675 15.2131C69.7675 15.5087 69.7464 15.7833 69.7042 16.079H61.5518V16.2057C61.5941 17.1561 61.8898 17.8953 62.4389 18.4444C62.9669 18.9935 63.685 19.2681 64.572 19.2681C65.269 19.2681 65.8603 19.1203 66.3461 18.7823C66.8107 18.4444 67.1275 17.9798 67.2965 17.3673H69.5774C69.3662 18.4655 68.8382 19.3737 67.9723 20.0707C67.1064 20.7887 66.0293 21.1267 64.741 21.1267C63.6005 21.1267 62.629 20.9155 61.7842 20.4508C60.9394 19.9862 60.3058 19.3526 59.8411 18.5078C59.3765 17.6841 59.1653 16.7126 59.1653 15.6143C59.1653 14.5161 59.3765 13.5446 59.82 12.6998ZM67.4443 14.4105C67.3387 13.6291 67.0219 13.0166 66.4939 12.5731C65.9659 12.1295 65.3112 11.8972 64.5086 11.8972C63.7483 11.8972 63.1147 12.1295 62.5656 12.5942C62.0165 13.0588 61.7208 13.6502 61.6363 14.4105H67.4443ZM77.5885 10.1865V12.3196H76.5748C75.6244 12.3196 74.9485 12.6364 74.5261 13.2489C74.1037 13.8614 73.8925 14.6428 73.8925 15.5721V20.9999H71.6116V10.1865H73.6391L73.8925 11.8127C74.1882 11.3059 74.5895 10.9257 75.0964 10.63C75.5821 10.3343 76.2368 10.1865 77.0816 10.1865H77.5885ZM81.1063 16.1846C81.1697 17.0716 81.5287 17.7686 82.1623 18.2966C82.7959 18.8246 83.6407 19.078 84.6756 19.078C85.5626 19.078 86.3018 18.8879 86.851 18.5078C87.4001 18.1276 87.6958 17.5785 87.6958 16.8815C87.6958 16.3958 87.5268 16.0156 87.2311 15.7199C86.9354 15.4243 86.513 15.2131 86.0062 15.0441C85.4782 14.8963 84.739 14.7273 83.8097 14.5583C82.8382 14.3894 82.0145 14.1782 81.3386 13.9036C80.6628 13.6291 80.0926 13.2067 79.6702 12.6364C79.2478 12.0873 79.0366 11.3481 79.0366 10.4188C79.0366 9.57402 79.2478 8.83482 79.6913 8.15898C80.1348 7.50426 80.7473 6.99738 81.5498 6.61722C82.3524 6.25818 83.2606 6.0681 84.2954 6.0681C85.3514 6.0681 86.2807 6.2793 87.1255 6.65946C87.9492 7.06074 88.6039 7.60986 89.0897 8.2857C89.5543 8.98266 89.8289 9.7641 89.8711 10.6511H87.4846C87.4001 9.89082 87.0622 9.27834 86.4919 8.8137C85.9006 8.34906 85.1825 8.11674 84.2954 8.11674C83.4295 8.11674 82.7326 8.30682 82.2257 8.68698C81.7188 9.06714 81.4654 9.57402 81.4654 10.2499C81.4654 10.7356 81.6132 11.1158 81.9089 11.3903C82.2046 11.686 82.627 11.8972 83.1338 12.0239C83.6407 12.1718 84.3588 12.3196 85.3092 12.4886C86.2596 12.6575 87.0833 12.8899 87.7802 13.1644C88.4561 13.4601 89.0263 13.8614 89.4698 14.4105C89.8922 14.9596 90.1246 15.6988 90.1246 16.5859C90.1246 17.4729 89.8922 18.2543 89.4276 18.9302C88.963 19.6271 88.3082 20.1763 87.4846 20.5564C86.6398 20.9366 85.7105 21.1267 84.6545 21.1267C83.4718 21.1267 82.458 20.9155 81.571 20.4931C80.6839 20.0707 79.987 19.5004 79.4801 18.7401C78.9732 17.9798 78.7198 17.1139 78.7198 16.1423L81.1063 16.1846ZM92.2838 12.6998C92.7273 11.855 93.3398 11.2214 94.1423 10.7567C94.9449 10.2921 95.853 10.0598 96.8879 10.0598C97.9228 10.0598 98.831 10.271 99.6335 10.6934C100.436 11.1158 101.049 11.7283 101.513 12.4886C101.978 13.27 102.21 14.1782 102.231 15.2131C102.231 15.5087 102.21 15.7833 102.168 16.079H94.0156V16.2057C94.0578 17.1561 94.3535 17.8953 94.9026 18.4444C95.4306 18.9935 96.1487 19.2681 97.0358 19.2681C97.7327 19.2681 98.3241 19.1203 98.8098 18.7823C99.2745 18.4444 99.5913 17.9798 99.7602 17.3673H102.041C101.83 18.4655 101.302 19.3737 100.436 20.0707C99.5702 20.7887 98.493 21.1267 97.2047 21.1267C96.0642 21.1267 95.0927 20.9155 94.2479 20.4508C93.4031 19.9862 92.7695 19.3526 92.3049 18.5078C91.8402 17.6841 91.629 16.7126 91.629 15.6143C91.629 14.5161 91.8402 13.5446 92.2838 12.6998ZM99.9081 14.4105C99.8025 13.6291 99.4857 13.0166 98.9577 12.5731C98.4297 12.1295 97.775 11.8972 96.9724 11.8972C96.2121 11.8972 95.5785 12.1295 95.0294 12.5942C94.4802 13.0588 94.1846 13.6502 94.1001 14.4105H99.9081ZM112.418 20.0707C111.531 20.7887 110.411 21.1267 109.06 21.1267C107.983 21.1267 107.032 20.9155 106.23 20.4508C105.406 19.9862 104.772 19.3315 104.329 18.4867C103.885 17.6419 103.674 16.6703 103.674 15.5721C103.674 14.4739 103.885 13.5235 104.35 12.6787C104.793 11.855 105.427 11.2214 106.251 10.7567C107.074 10.2921 108.025 10.0598 109.123 10.0598C110.475 10.0598 111.573 10.4188 112.439 11.1369C113.284 11.855 113.833 12.8054 114.044 14.0303H111.7C111.531 13.4179 111.235 12.9321 110.77 12.5519C110.306 12.1929 109.735 12.0028 109.06 12.0028C108.13 12.0028 107.391 12.3407 106.842 12.9955C106.293 13.6713 106.018 14.5161 106.018 15.5721C106.018 16.6492 106.293 17.5151 106.842 18.191C107.391 18.8668 108.13 19.1836 109.06 19.1836C109.757 19.1836 110.348 19.0147 110.813 18.6345C111.277 18.2543 111.573 17.7475 111.721 17.1139H114.044C113.833 18.3811 113.284 19.3526 112.418 20.0707Z" fill="url(#paint1_linear_13_105)"/>
<defs>
<linearGradient id="paint0_linear_13_105" x1="11.484" y1="1.01599" x2="44.88" y2="36.2598" gradientUnits="userSpaceOnUse">
<stop stop-color="white"/>
<stop offset="1" stop-color="white" stop-opacity="0.5"/>
</linearGradient>
<linearGradient id="paint1_linear_13_105" x1="72.3041" y1="-6.0387e-05" x2="37.7735" y2="80.6891" gradientUnits="userSpaceOnUse">
<stop stop-color="white"/>
<stop offset="1" stop-color="white" stop-opacity="0.5"/>
</linearGradient>
</defs>
</svg>
